# xmcd
#
# Track frame offsets:
#	182
#	12642
#	25730
#	38332
#	55800
#	76670
#	104190
#	133970
#	149722
#	161555
#	182740
#	193202
#	217205
#	231462
#	249875
#	270690
#	283795
#
# Disc length: 3938
#
# Revision: 1
# Processed by: cddbd v1.5.1PL0 Copyright (c) Steve Scherf et al.
# Submitted via: CDex 1.50
# Normalized: r0:TDELIM( - )
#
DISCID=050f6011
DTITLE=Various Artist - La Route du Blues [CD 3/3)
DYEAR=1995
DGENRE=Blues
TTITLE0=Albert King - Born Under a Bad Sign
TTITLE1=Elmore James - Dust my Broom
TTITLE2=Howlin Wolf - Back Door Man
TTITLE3=Hond Dog Taylor - She's Gone
TTITLE4=Buddy Guy - Mustang Sally
TTITLE5=bernard Allison - Cadillac Assembly line
TTITLE6=Little Milton - I Can't Quit You Baby
TTITLE7=Magic Sam - Easy Baby
TTITLE8=Otis Rush - All Your Love
TTITLE9=Big Bad Smitty - Lonely man
TTITLE10=Buddy Guy - First Time I Met the Blues
TTITLE11=Lonnie Brooks and Johnny Winter - Wound Up Tight
TTITLE12=Albert Collins - Ice Pick
TTITLE13=Hound Dog Taylor - It's Allright
TTITLE14=Stevie Ray Vaughan - The Sky is Crying
TTITLE15=Muddy Waters - Mannish Boy
TTITLE16=Sonny Boy Williamson - Good Evening Everybody
EXTD=YEAR: 1995
EXTT0=
EXTT1=
EXTT2=
EXTT3=
EXTT4=
EXTT5=
EXTT6=
EXTT7=
EXTT8=
EXTT9=
EXTT10=
EXTT11=
EXTT12=
EXTT13=
EXTT14=
EXTT15=
EXTT16=
PLAYORDER=
